<?xml version="1.0" encoding="utf-8"?>
<!-- Generator: Adobe Illustrator 23.0.1, SVG Export Plug-In . SVG Version: 6.00 Build 0)  -->
<svg version="1.1" id="Calque_1" xmlns="http://www.w3.org/2000/svg" xmlns:xlink="http://www.w3.org/1999/xlink" x="0px" y="0px"
	 viewBox="0 0 29.09 19.52" style="enable-background:new 0 0 29.09 19.52;" xml:space="preserve">
<style type="text/css">
	.st0{fill:#D2B48C;}
</style>
<g>
	<g>
		<path class="st0" d="M1.38,1.31C0.83,1.31,0.55,1.31,0,1.32c0-0.48,0-0.72,0-1.2c1.63,0,2.45,0,4.08,0c0,0.47,0,0.7,0,1.17
			c-0.55,0-0.83,0.01-1.38,0.01c0,2.82,0,4.23,0,7.05C2.17,8.38,1.9,8.39,1.38,8.42C1.38,5.58,1.38,4.15,1.38,1.31z"/>
		<path class="st0" d="M4.72,0.12c0.78,0,1.17,0,1.96,0c1.37,0,1.95,0.6,1.95,1.84c0,0.2,0,0.29,0,0.49c0,0.82-0.28,1.35-0.86,1.59
			c0,0.01,0,0.01,0,0.02c0.66,0.18,0.88,0.77,0.87,1.67c0,0.56,0,0.84,0,1.4c0,0.39,0.01,0.67,0.14,0.97
			C8.24,8.11,7.97,8.12,7.43,8.13c-0.07-0.2-0.12-0.33-0.12-0.98c0-0.59,0-0.88,0-1.47c0-0.75-0.23-0.98-0.83-0.97
			c-0.18,0-0.27,0.01-0.46,0.01c0,1.38,0,2.08,0,3.46C5.5,8.21,5.24,8.22,4.71,8.24C4.71,4.99,4.71,3.37,4.72,0.12z M6.51,3.57
			C7,3.56,7.3,3.35,7.3,2.71c0-0.25,0-0.37,0-0.62c0-0.57-0.2-0.82-0.67-0.82c-0.24,0-0.36,0-0.6,0c0,0.92,0,1.38,0,2.31
			C6.22,3.57,6.32,3.57,6.51,3.57z"/>
		<path class="st0" d="M9.55,0.11c0.53,0,0.79,0,1.32,0c0,3.17,0,4.76,0,7.93c-0.53,0.01-0.79,0.01-1.32,0.03
			C9.55,4.89,9.55,3.3,9.55,0.11z"/>
		<path class="st0" d="M11.62,6.16c0-0.18,0-0.27,0-0.45c0.5,0,0.75-0.01,1.25-0.01c0,0.22,0,0.33,0,0.54C12.87,6.8,13.14,7,13.56,7
			c0.42,0,0.68-0.2,0.68-0.79c0-0.66-0.27-1.07-1.13-1.78c-1.1-0.91-1.46-1.55-1.46-2.46c0-1.25,0.68-1.97,1.97-1.97
			s1.92,0.72,1.92,1.99c0,0.13,0,0.2,0,0.33c-0.5,0-0.75,0-1.25,0c0-0.16,0-0.24,0-0.41c0-0.56-0.24-0.78-0.66-0.78
			c-0.42,0-0.66,0.22-0.66,0.76c0,0.58,0.28,0.99,1.14,1.7c1.1,0.91,1.45,1.55,1.45,2.53c0,1.29-0.7,2-1.99,2.01
			C12.27,8.14,11.62,7.42,11.62,6.16z"/>
		<path class="st0" d="M17.35,1.24c-0.55,0-0.83,0-1.38,0c0-0.45,0-0.68,0-1.13c1.63,0,2.45,0,4.08,0c0,0.46,0,0.68,0,1.14
			c-0.55,0-0.83,0-1.38,0c0,2.72,0,4.08,0,6.81c-0.53-0.01-0.79-0.01-1.32-0.02C17.35,5.32,17.35,3.96,17.35,1.24z"/>
		<path class="st0" d="M21.16,0.11c0.71,0,1.07,0,1.79,0c0.55,3.23,0.82,4.85,1.37,8.13C23.79,8.22,23.53,8.21,23,8.18
			c-0.1-0.64-0.14-0.97-0.24-1.61c0,0.01,0,0.01,0,0.02c-0.6-0.02-0.9-0.03-1.5-0.04c-0.1,0.62-0.14,0.94-0.24,1.56
			c-0.49-0.01-0.73-0.02-1.22-0.03C20.34,4.91,20.61,3.32,21.16,0.11z M22.6,5.5c-0.24-1.6-0.35-2.4-0.59-3.98
			c-0.01,0-0.01,0-0.02,0c-0.23,1.59-0.34,2.38-0.57,3.96C21.89,5.48,22.12,5.49,22.6,5.5z"/>
		<path class="st0" d="M24.95,0.12c0.66,0,0.99,0,1.66,0c0.51,1.97,0.77,2.97,1.28,4.98c0.01,0,0.01,0,0.02,0c0-1.99,0-2.99,0-4.98
			c0.47,0,0.71,0,1.18,0c0,3.36,0,5.04,0,8.4c-0.54-0.04-0.81-0.05-1.35-0.09c-0.63-2.47-0.95-3.68-1.59-6.09c-0.01,0-0.01,0-0.02,0
			c0,2.4,0,3.6,0,6c-0.47-0.03-0.7-0.04-1.17-0.06C24.95,5.01,24.95,3.38,24.95,0.12z"/>
		<path class="st0" d="M1.99,10.95c0.53-0.04,0.79-0.06,1.32-0.1c0,2.81,0,4.22-0.01,7.03c0.87-0.1,1.3-0.14,2.17-0.22
			c0,0.46,0,0.69,0,1.16c-1.4,0.14-2.09,0.22-3.48,0.41C1.98,15.92,1.98,14.26,1.99,10.95z"/>
		<path class="st0" d="M6.11,10.69c1.44-0.07,2.16-0.1,3.6-0.15c0,0.45,0,0.68,0,1.14c-0.91,0.03-1.37,0.05-2.28,0.09
			c0,0.85,0,1.27,0,2.12c0.72-0.04,1.09-0.06,1.81-0.09c0,0.46,0,0.68,0,1.14c-0.73,0.03-1.09,0.05-1.81,0.1c0,0.99,0,1.48,0,2.46
			c0.91-0.07,1.37-0.09,2.28-0.14c0,0.45,0,0.68,0,1.14c-1.44,0.08-2.16,0.13-3.6,0.26C6.11,15.53,6.11,13.91,6.11,10.69z"/>
		<path class="st0" d="M10.47,10.52c0.75-0.02,1.13-0.03,1.89-0.04c0.34,2.26,0.5,3.39,0.84,5.65c0.01,0,0.01,0,0.02,0
			c0.34-2.27,0.51-3.4,0.84-5.66c0.75,0,1.13,0,1.89,0.01c0,3.16,0,4.74,0,7.91c-0.5-0.01-0.75-0.01-1.25-0.01c0-2.39,0-3.59,0-5.98
			c-0.01,0-0.01,0-0.02,0c-0.38,2.39-0.58,3.59-0.96,5.99c-0.44,0-0.66,0.01-1.11,0.02c-0.38-2.39-0.58-3.58-0.96-5.97
			c-0.01,0-0.01,0-0.02,0c0,2.4,0,3.6,0,6c-0.46,0.01-0.69,0.02-1.15,0.04C10.47,15.28,10.47,13.7,10.47,10.52z"/>
		<path class="st0" d="M16.94,10.49c0.53,0.01,0.79,0.01,1.32,0.02c0,3.17,0,4.76,0,7.94c-0.53-0.02-0.79-0.03-1.32-0.04
			C16.94,15.24,16.94,13.65,16.94,10.49z"/>
		<path class="st0" d="M19.24,10.54c0.78,0.02,1.17,0.04,1.96,0.07c1.37,0.06,1.96,0.7,1.96,1.95c0,0.2,0,0.3,0,0.5
			c0,0.83-0.27,1.34-0.86,1.53c0,0.01,0,0.01,0,0.02c0.66,0.24,0.88,0.86,0.88,1.77c0,0.57,0,0.85,0,1.42
			c0,0.39,0.01,0.68,0.14,0.99c-0.54-0.05-0.81-0.07-1.34-0.12c-0.07-0.21-0.12-0.34-0.12-1c0-0.59,0-0.88,0-1.47
			c0-0.75-0.23-1-0.83-1.04c-0.18-0.01-0.27-0.02-0.46-0.03c0,1.37,0,2.05,0,3.42c-0.53-0.03-0.79-0.05-1.32-0.08
			C19.25,15.31,19.24,13.72,19.24,10.54z M21.05,14.03c0.49,0.03,0.79-0.16,0.79-0.8c0-0.25,0-0.37,0-0.62
			c0-0.57-0.2-0.84-0.67-0.86c-0.24-0.01-0.36-0.02-0.6-0.03c0,0.91,0,1.37,0,2.28C20.76,14.01,20.85,14.02,21.05,14.03z"/>
		<path class="st0" d="M24.08,10.75c1.44,0.08,2.16,0.13,3.59,0.25c0,0.47,0,0.71,0,1.19c-0.91-0.08-1.36-0.12-2.27-0.19
			c0,0.86,0,1.3,0,2.16c0.72,0.06,1.08,0.1,1.81,0.17c0,0.47,0,0.71,0,1.18c-0.72-0.08-1.08-0.12-1.81-0.19c0,1,0,1.51,0,2.51
			c0.91,0.1,1.36,0.16,2.27,0.28c0,0.47,0,0.71,0,1.19c-1.43-0.2-2.15-0.29-3.59-0.44C24.09,15.62,24.08,13.99,24.08,10.75z"/>
	</g>
</g>
</svg>
